<?xml version="1.0" encoding="UTF-8"?><svg xmlns="http://www.w3.org/2000/svg" viewBox="0 0 2512.22 1850.95"><defs><style>.cls-1{fill:#3554ff;}.cls-2{fill:green;}.cls-3{fill:blue;}.cls-4{fill:#ff8000;}.cls-5{fill:#004dd4;}.cls-6{fill:navy;}</style></defs><g id="Layer_1"><polygon class="cls-6" points="476.52 749.33 476.52 1380.46 1026.33 1064.89 1261.94 1200.13 231.75 1784.66 231.75 608.84 476.52 749.33"/><polygon class="cls-5" points="0 210.57 2044.46 1391.14 2044.46 1112.9 231.75 66.83 0 210.57"/><polygon class="cls-1" points="476.52 1380.46 1026.33 1064.89 790.53 929.56 476.52 1108.63 476.52 1380.46"/><polygon class="cls-1" points="2512.22 210.57 2280.36 66.83 1261.94 661.33 1492.01 794.33 2512.22 210.57"/><polygon class="cls-6" points="2280.36 1784.66 2512.22 1653.24 2512.22 210.57 1492.01 794.33 1729.92 931.43 2280.36 610.85 2280.36 1784.66"/><polygon class="cls-3" points="2044.46 748.25 2044.46 1391.14 0 210.57 0 1657.28 231.75 1784.66 231.75 608.84 2280.36 1784.66 2280.36 1784.66 2280.36 610.85 2044.46 748.25"/><polygon class="cls-2" points="1262.79 1270.99 306.75 1825.5 349.84 1849.13 1262.05 1322.72 2166.95 1850.95 2207.74 1827.14 1262.79 1270.99"/></g><g id="Layer_3"><polygon class="cls-4" points="2173.71 0 1260.8 532.92 337.46 .08 297.29 25.38 1261.54 584.64 2213.16 24.57 2173.71 0"/></g></svg>