<?xml version="1.0" standalone="no"?>
<!DOCTYPE svg PUBLIC "-//W3C//DTD SVG 20010904//EN"
 "http://www.w3.org/TR/2001/REC-SVG-20010904/DTD/svg10.dtd">
<svg version="1.0" xmlns="http://www.w3.org/2000/svg"
 width="1254.000000pt" height="1254.000000pt" viewBox="0 0 1254.000000 1254.000000"
 preserveAspectRatio="xMidYMid meet">
<metadata>
Created by potrace 1.16, written by Peter Selinger 2001-2019
</metadata>
<g transform="translate(0.000000,1254.000000) scale(0.100000,-0.100000)"
fill="#000000" stroke="none">
<path d="M0 6270 l0 -6270 6270 0 6270 0 0 6270 0 6270 -6270 0 -6270 0 0
-6270z m7360 3862 c453 -82 833 -253 1178 -530 234 -188 433 -424 620 -738
115 -192 233 -546 282 -848 98 -598 -5 -1202 -297 -1749 -72 -133 -141 -239
-153 -232 -5 3 -7 0 -5 -7 3 -7 -33 -62 -81 -122 -339 -427 -763 -714 -1273
-861 -121 -34 -324 -76 -365 -74 -18 1 42 14 152 34 l34 6 -23 20 c-12 10 -36
19 -53 19 -17 1 28 16 99 34 754 195 1375 708 1695 1404 24 51 45 90 47 88 3
-2 -5 -26 -16 -52 -21 -46 -21 -48 -2 -65 18 -17 20 -16 49 49 35 79 66 171
60 178 -3 2 -10 -14 -17 -37 -7 -22 -14 -39 -17 -37 -8 8 24 83 34 81 6 -1 21
33 35 75 33 103 42 152 28 152 -13 0 -15 46 -2 55 6 3 13 26 17 51 4 30 11 44
19 40 12 -4 25 41 25 92 l0 23 -24 -24 c-13 -13 -27 -38 -31 -56 -15 -70 -15
-17 0 99 27 204 25 478 -4 652 l-9 53 -1 -42 -1 -42 -30 10 c-16 6 -30 15 -30
21 0 5 -4 7 -9 3 -6 -3 -13 1 -18 8 -4 8 -32 24 -60 37 -29 13 -53 30 -53 37
0 7 -10 13 -23 13 -13 0 -33 9 -45 20 -12 12 -22 18 -22 15 0 -7 -84 27 -91
37 -3 5 -14 10 -25 13 -10 2 -34 10 -52 17 -25 10 -37 10 -52 0 -12 -7 -21 -8
-25 -2 -4 6 -11 8 -16 4 -19 -11 -183 -7 -187 5 -2 7 -11 4 -23 -10 -13 -15
-19 -17 -19 -8 -1 9 -7 7 -19 -8 l-18 -22 -12 22 c-7 14 -10 15 -6 4 15 -52
45 -225 56 -317 14 -121 7 -310 -16 -445 -91 -525 -367 -951 -795 -1228 -250
-161 -546 -255 -825 -262 -71 -1 -106 -1 -78 2 l53 4 -20 21 c-15 17 -37 23
-92 28 l-73 7 97 2 c748 11 1376 486 1598 1207 56 180 65 249 64 489 0 250
-13 334 -84 548 -211 633 -759 1081 -1415 1157 -56 6 -480 10 -1117 10 l-1026
0 -44 49 c-74 83 -525 559 -672 708 l-140 142 1620 -2 1619 -2 125 -23z
m-2070 -1202 c-25 -5 -61 -15 -80 -24 l-35 -15 75 -2 c44 -1 5 -6 -95 -10 -93
-5 -200 -6 -236 -3 l-67 6 -77 -81 -78 -81 -403 0 -403 0 -15 -27 c-36 -69
-100 -100 -173 -82 -81 21 -129 107 -104 189 37 125 216 136 277 18 l15 -28
387 0 388 0 74 75 74 75 261 -1 c163 -1 243 -4 215 -9z m1965 -281 c50 -41
182 -154 293 -253 192 -168 205 -178 229 -167 20 9 24 16 19 39 -3 15 -7 79
-10 142 -4 104 -4 108 4 40 5 -41 12 -106 16 -143 5 -59 9 -69 28 -77 28 -10
50 -61 42 -94 -5 -20 16 -45 162 -188 92 -90 174 -172 182 -183 8 -11 -68 60
-169 157 -164 157 -187 177 -210 171 -14 -3 -30 -9 -35 -13 -4 -5 -16 -50 -26
-102 -9 -51 -27 -147 -40 -214 l-23 -120 28 -28 28 -28 220 43 c215 43 220 45
229 72 8 22 34 47 50 47 2 0 3 -29 3 -65 0 -36 -1 -65 -3 -65 -14 0 -42 24
-42 36 0 10 -7 13 -22 9 -13 -3 -114 -25 -225 -48 l-203 -43 -18 -35 -18 -36
120 -219 c113 -204 123 -219 147 -216 23 3 31 16 74 123 26 65 50 117 52 115
2 -2 -16 -55 -41 -117 -51 -126 -52 -131 -31 -149 23 -19 18 -68 -10 -95 -27
-28 -61 -32 -85 -10 -15 13 -34 2 -192 -108 -96 -68 -221 -155 -277 -192 -87
-59 -102 -73 -100 -95 2 -39 0 -45 -21 -68 -27 -29 -70 -28 -103 2 l-25 23
-118 -38 c-66 -22 -123 -38 -127 -36 -4 1 45 20 110 41 65 21 122 42 127 47 6
5 15 24 21 41 10 32 8 36 -68 128 -125 150 -242 299 -197 250 22 -25 95 -111
162 -192 117 -141 122 -147 152 -141 17 3 32 7 34 8 3 2 227 631 279 783 31
92 34 106 21 119 -14 13 -54 -11 -346 -204 -265 -174 -331 -222 -327 -237 6
-30 -12 -64 -42 -79 -39 -18 -66 -11 -86 23 -17 27 -17 31 -1 67 10 21 16 42
15 47 -1 5 4 5 11 -1 7 -6 22 -7 33 -3 14 5 26 2 40 -11 20 -18 26 -14 351
204 l330 221 -1 42 c0 41 0 41 -170 179 -93 76 -182 148 -196 161 -20 19 -32
23 -57 18 -18 -4 -35 -11 -38 -16 -3 -5 -19 5 -36 23 -26 27 -29 37 -24 67 3
20 14 43 25 52 20 15 20 15 -4 110 -13 52 -22 96 -20 98 3 4 8 -10 24 -75 30
-119 32 -123 51 -123 11 0 29 -10 40 -22 17 -18 21 -32 17 -61 -5 -38 -5 -38
91 -115 54 -42 145 -116 204 -164 107 -87 107 -87 139 -74 l32 14 44 218 c27
140 39 220 32 223 -5 1 -19 12 -30 24 l-19 21 -212 -52 c-116 -29 -213 -51
-215 -49 -4 5 178 54 329 89 93 22 97 24 106 55 10 32 9 34 -58 90 -106 90
-491 425 -520 453 -38 36 -8 14 95 -71z m-450 -76 c-7 -17 -70 -192 -258 -718
-41 -115 -129 -358 -195 -540 -65 -181 -134 -372 -152 -423 -23 -66 -36 -89
-43 -80 -6 9 -7 7 -3 -6 4 -11 -5 -52 -20 -93 -32 -87 -43 -92 -15 -7 11 32
18 61 15 63 -2 2 -4 -1 -4 -8 0 -7 -4 -10 -9 -7 -5 3 -11 -3 -14 -14 -6 -22
-37 -28 -37 -7 0 7 23 80 50 162 49 145 63 204 34 137 -13 -29 -16 -31 -29
-18 -10 10 -31 13 -67 10 -82 -5 -92 -7 -106 -21 -7 -7 -26 -13 -42 -13 -16 0
-35 -7 -44 -15 -8 -8 -21 -15 -28 -15 -21 0 -102 -43 -116 -62 -7 -10 -19 -18
-26 -18 -7 0 -29 -11 -49 -24 -19 -13 -48 -27 -65 -31 -17 -3 -33 -12 -36 -20
-3 -8 -23 -23 -46 -35 -22 -11 -40 -25 -40 -30 0 -5 -7 -6 -17 -3 -11 4 -14 3
-9 -6 8 -12 -28 -51 -46 -51 -5 0 -7 -4 -4 -9 4 -5 -8 -12 -25 -16 -18 -4 -35
-16 -41 -31 -6 -13 -15 -24 -20 -24 -4 0 -8 -7 -8 -15 0 -8 -5 -15 -11 -15 -5
0 -7 -4 -4 -10 3 -5 2 -10 -4 -10 -5 0 -12 -9 -16 -19 -3 -10 -15 -21 -26 -24
-12 -3 -18 -10 -14 -16 3 -6 -1 -11 -9 -11 -8 0 -27 -17 -41 -37 -31 -46 -31
-44 0 47 14 40 23 75 21 77 -2 2 -34 -81 -71 -184 -37 -103 -89 -246 -115
-318 -26 -71 -121 -338 -211 -591 l-164 -462 -49 -36 c-27 -20 -51 -34 -53
-32 -4 4 140 424 237 691 16 44 59 166 95 270 37 105 94 267 127 360 75 214
262 751 333 955 48 140 93 268 320 915 37 105 84 241 106 304 22 62 44 122 50
132 9 18 31 19 515 19 478 0 506 -1 499 -17z m-1651 -43 c-33 -13 -40 -31 -19
-47 16 -11 -19 -13 -231 -13 l-249 0 -195 -195 -195 -195 -535 0 -535 -1 -20
-31 c-29 -45 -67 -70 -116 -75 -88 -9 -159 58 -159 149 0 89 49 140 140 146
67 4 112 -20 137 -73 l17 -35 525 0 526 0 190 190 190 190 275 -1 c166 0 266
-4 254 -9z m-149 -371 c55 -1 89 -4 75 -6 -14 -3 -33 -12 -44 -21 -18 -16 -17
-17 15 -23 19 -4 -22 -7 -91 -8 l-125 -2 -283 -279 -283 -280 -188 0 -187 0
-17 -35 c-44 -93 -192 -101 -247 -13 -32 50 -24 137 15 178 35 37 85 54 131
45 38 -7 100 -55 109 -86 6 -18 17 -19 183 -19 l177 0 280 281 280 281 50 -6
c28 -3 95 -6 150 -7z m-1641 -1253 c36 -15 76 -60 75 -85 0 -11 -3 -9 -9 7 -5
12 -16 22 -24 22 -7 0 -24 9 -37 21 -21 18 -22 20 -4 14 14 -4 17 -3 9 5 -15
15 -77 24 -109 16 -23 -6 -24 -8 -10 -22 8 -9 13 -19 11 -23 -3 -4 11 -7 30
-7 24 0 41 -8 57 -24 19 -21 19 -22 1 -7 -28 23 -79 22 -104 -3 -59 -59 27
-156 94 -105 10 8 22 31 26 52 7 35 8 36 9 8 0 -17 -7 -42 -16 -55 -9 -14 -13
-22 -8 -18 4 4 17 1 28 -7 16 -11 24 -12 36 -2 14 11 14 9 0 -13 -30 -48 -111
-73 -164 -50 -18 8 -17 9 7 9 17 1 29 8 33 21 3 11 13 20 20 20 8 0 16 3 18 8
6 9 -66 9 -73 0 -10 -13 -54 -13 -56 0 -1 6 -2 19 -3 28 0 8 -5 13 -10 10 -5
-4 -12 0 -14 6 -3 8 -6 6 -6 -4 -1 -10 14 -34 32 -54 26 -30 28 -35 10 -25
-13 6 -32 30 -44 53 -65 128 61 260 195 204z m-1149 -2605 c42 -17 78 -42 122
-86 91 -91 97 -119 97 -415 0 -222 -2 -238 -24 -294 -47 -122 -153 -196 -306
-216 -47 -7 -245 -10 -484 -8 l-405 3 -3 323 -2 322 120 0 120 0 0 -220 0
-220 313 0 c305 0 314 1 357 23 74 38 80 59 80 290 0 188 -1 202 -22 239 -44
77 -48 78 -460 78 l-363 0 -80 88 c-44 48 -86 95 -94 105 -14 17 6 18 480 15
l494 -3 60 -24z m1345 -229 c79 -141 204 -364 277 -495 73 -131 139 -248 148
-260 8 -12 15 -25 15 -30 0 -4 -57 -6 -127 -5 l-128 3 -83 150 c-46 83 -141
251 -210 375 -69 124 -130 231 -136 238 -13 13 -15 11 -237 -383 -62 -110
-136 -240 -164 -290 l-52 -90 -121 -3 c-86 -2 -122 1 -122 9 0 11 113 213 403
719 77 135 150 262 161 282 l21 38 105 -1 105 0 145 -257z m1680 227 c77 -36
124 -80 157 -147 26 -52 28 -67 28 -167 0 -100 -3 -115 -28 -167 -16 -32 -47
-73 -69 -93 -43 -36 -132 -75 -173 -75 -13 0 -26 -4 -29 -8 -3 -5 71 -84 165
-178 93 -93 169 -172 169 -175 0 -4 -64 -8 -143 -8 l-143 -2 -95 98 c-52 54
-130 135 -174 181 l-79 82 -165 -2 -166 -3 -3 -177 -2 -178 -115 0 -115 0 0
280 0 279 429 3 c418 3 430 4 458 24 60 45 67 157 13 217 l-28 32 -436 3 -436
3 0 105 0 105 463 -3 462 -3 55 -26z m1578 -1 c-14 -18 -49 -66 -79 -105 l-53
-73 -349 0 -349 0 -29 -29 c-46 -47 -39 -133 14 -163 16 -10 107 -14 333 -18
l311 -5 68 -35 c108 -55 155 -137 155 -271 0 -171 -93 -281 -260 -308 -38 -6
-241 -11 -489 -11 -388 0 -423 1 -417 16 4 9 34 56 69 105 l62 88 378 3 379 3
24 28 c35 41 33 106 -4 148 l-28 32 -294 3 c-168 2 -310 9 -334 15 -154 41
-234 154 -224 318 5 81 25 132 74 190 28 33 107 79 159 92 17 4 227 7 469 8
l438 1 -24 -32z m522 -178 l0 -210 344 0 343 0 6 168 c3 92 5 185 4 207 l-2
40 118 3 117 3 -2 -523 -3 -523 -115 0 -115 0 -3 212 -2 213 -343 -4 -342 -5
-5 -208 -5 -208 -115 0 -115 0 -3 523 -2 522 120 0 120 0 0 -210z m2275 -306
c160 -283 292 -519 293 -525 3 -6 -43 -9 -124 -7 l-128 3 -89 160 c-218 392
-339 605 -346 610 -4 2 -39 -51 -76 -118 -136 -241 -324 -573 -349 -614 l-26
-43 -120 0 c-66 0 -120 4 -120 8 0 8 308 558 501 894 l84 148 105 0 105 -1
290 -515z m1110 163 c186 -193 343 -353 347 -355 4 -2 8 156 8 352 l0 356 115
0 115 0 -2 -522 -3 -523 -111 -3 -112 -3 -253 263 c-140 145 -298 308 -351
363 l-98 100 0 -363 0 -363 -112 3 -113 3 -3 523 -2 522 117 0 118 0 340 -353z
m-7330 -502 c43 -77 85 -150 93 -162 l14 -23 -195 0 -196 0 97 169 c53 93 100
166 103 163 3 -4 41 -70 84 -147z m5920 -16 l94 -164 -186 -3 c-102 -1 -188
-1 -190 1 -2 3 37 76 87 163 49 87 90 163 90 168 0 16 8 3 105 -165z"/>
<path d="M4051 10122 c39 -51 124 -130 130 -120 4 7 11 3 19 -12 10 -18 10
-21 -2 -15 -7 4 7 -13 31 -38 24 -25 48 -44 53 -41 5 3 7 0 6 -8 -2 -9 5 -12
22 -10 33 5 34 6 20 34 -6 12 119 -109 278 -269 l289 -293 189 2 c161 2 174 3
89 8 -95 6 -96 6 -29 8 55 2 73 6 78 18 3 9 4 20 1 25 -4 5 1 6 9 3 9 -3 17 2
21 15 3 12 15 21 26 21 22 0 24 11 7 28 -9 9 -8 12 5 12 19 0 22 13 6 41 -5
11 -15 16 -21 13 -7 -5 -9 -2 -5 9 7 17 -15 41 -28 29 -4 -4 -2 3 4 16 8 14 8
22 1 22 -5 0 -10 -5 -10 -11 0 -6 -9 -1 -19 12 -18 23 -18 25 -3 44 16 19 16
19 -2 5 -18 -14 -19 -13 -13 4 6 14 4 17 -8 12 -9 -3 -14 -2 -11 3 3 5 -12 27
-34 50 -22 23 -40 46 -40 51 0 6 -4 10 -10 10 -5 0 -7 6 -4 14 3 7 -2 16 -12
20 -12 5 -15 2 -10 -11 4 -11 -1 -8 -13 7 -11 13 -17 29 -14 34 3 5 2 6 -4 3
-5 -3 -20 4 -34 16 -14 12 -19 18 -12 13 10 -6 12 -5 7 7 -8 23 -34 30 -35 9
0 -14 -2 -14 -6 -2 -7 17 -41 44 -59 46 -7 1 -25 11 -41 23 -15 12 -51 29 -78
39 -28 10 -49 22 -48 27 2 6 29 13 60 16 34 3 -24 7 -137 8 -472 7 -488 8
-539 37 -25 14 -54 27 -64 29 -16 4 -17 2 -6 -13z"/>
<path d="M7700 7492 c-23 -3 -31 -20 -99 -215 -40 -117 -112 -318 -158 -447
-77 -215 -83 -236 -67 -247 14 -10 24 -7 63 21 25 18 107 75 181 126 277 192
315 222 317 244 0 11 1 29 2 38 1 9 8 24 16 32 14 14 14 19 -1 48 -43 86 -217
398 -222 401 -4 1 -18 1 -32 -1z"/>
</g>
</svg>
