<?xml version="1.0" standalone="no"?>
<!DOCTYPE svg PUBLIC "-//W3C//DTD SVG 20010904//EN"
 "http://www.w3.org/TR/2001/REC-SVG-20010904/DTD/svg10.dtd">
<svg version="1.0" xmlns="http://www.w3.org/2000/svg"
 width="500.000000pt" height="500.000000pt" viewBox="0 0 500.000000 500.000000"
 preserveAspectRatio="xMidYMid meet">

<g transform="translate(0.000000,500.000000) scale(0.100000,-0.100000)"
fill="#000000" stroke="none">
<path d="M1440 4140 c-11 -11 -20 -31 -20 -43 0 -51 72 -76 108 -37 16 17 33
19 180 20 89 1 164 5 166 9 3 4 -7 7 -22 7 -15 1 -91 1 -168 2 l-142 2 -6 25
c-4 14 -11 25 -17 25 -8 0 -8 -4 0 -14 6 -7 8 -27 5 -45 -5 -26 -11 -31 -35
-31 -17 0 -34 8 -43 21 -13 19 -13 24 0 45 9 12 21 21 29 18 7 -3 16 -1 20 5
11 20 -34 12 -55 -9z"/>
<path d="M1835 3922 c-11 -2 -40 -24 -65 -48 l-44 -44 -210 0 -209 0 -23 25
c-58 62 -147 -2 -103 -74 24 -40 55 -40 99 -1 l34 30 209 0 210 0 50 50 c41
41 56 50 85 50 19 0 32 3 28 7 -8 8 -34 10 -61 5z m-584 -72 c36 -20 14 -76
-27 -68 -31 6 -40 34 -20 57 22 24 21 24 47 11z"/>
<path d="M2374 3915 c1 -8 8 -21 16 -28 12 -10 12 -9 2 4 -6 9 -9 18 -6 21 3
3 1 9 -4 12 -6 3 -9 -1 -8 -9z"/>
<path d="M2343 3898 c2 -7 -1 -20 -8 -28 -7 -8 -47 -103 -89 -210 -42 -107
-108 -274 -146 -370 -74 -189 -224 -573 -245 -630 -8 -19 -23 -60 -34 -90 -12
-30 -21 -56 -21 -57 0 -8 959 -1 1037 7 145 15 284 56 388 115 159 89 319 241
400 379 76 130 143 351 151 501 6 101 -8 249 -26 270 -5 7 -6 16 -2 20 4 5 1
5 -5 1 -7 -4 -13 -2 -13 3 0 18 -18 12 -23 -6 -4 -15 -5 -15 -6 2 -1 19 -7 20
-88 16 -51 -2 -91 -8 -95 -15 -5 -7 -8 -6 -8 4 0 9 -13 21 -29 27 -25 9 -32 8
-47 -8 -14 -15 -14 -23 -4 -51 7 -18 15 -94 17 -168 5 -118 3 -146 -16 -215
-39 -141 -84 -219 -191 -326 -121 -121 -190 -159 -375 -206 -74 -18 -565 -32
-565 -15 0 9 71 216 120 347 10 28 37 104 60 170 23 66 55 156 71 200 15 44
37 112 49 150 12 39 25 82 30 98 8 25 6 27 -13 25 -25 -3 -129 21 -137 32 -8
11 -69 20 -75 11 -3 -5 -16 -4 -29 2 -13 7 -22 15 -20 19 3 5 0 8 -6 8 -7 0
-10 -6 -7 -12z m261 -116 c3 -5 -1 -9 -9 -9 -8 0 -12 4 -9 9 3 4 7 8 9 8 2 0
6 -4 9 -8z"/>
<path d="M3400 3846 c0 -9 30 -14 35 -6 4 6 -3 10 -14 10 -12 0 -21 -2 -21 -4z"/>
<path d="M1968 3731 c-54 -6 -60 -9 -135 -82 l-78 -76 -88 -6 c-83 -6 -88 -5
-112 18 -29 30 -68 32 -95 5 -26 -26 -25 -64 2 -90 31 -28 62 -25 95 10 27 29
32 30 112 30 l83 0 83 81 c91 89 113 98 223 99 34 0 62 4 62 9 0 10 -69 11
-152 2z m-427 -167 c17 -21 0 -49 -31 -49 -27 0 -46 25 -37 49 8 21 51 21 68
0z"/>
<path d="M3138 3614 c5 -11 8 -26 7 -35 -2 -9 -6 -32 -9 -50 -7 -41 9 -11 18
34 7 31 30 35 65 10 14 -9 21 -11 17 -5 -11 18 -65 44 -77 37 -5 -4 -8 -1 -7
6 2 6 -3 14 -10 16 -11 4 -12 1 -4 -13z"/>
<path d="M3351 3534 c0 -11 3 -14 6 -6 3 7 2 16 -1 19 -3 4 -6 -2 -5 -13z"/>
<path d="M2891 3524 c0 -11 3 -14 6 -6 3 7 2 16 -1 19 -3 4 -6 -2 -5 -13z"/>
<path d="M2965 3490 l-70 -50 -6 33 -6 32 -2 -32 c-1 -39 -15 -42 -71 -13 -52
27 -52 18 0 -11 37 -21 52 -39 32 -39 -4 0 -53 -30 -107 -66 -55 -36 -117 -75
-138 -86 -22 -11 -37 -22 -34 -25 7 -7 36 9 158 88 109 71 129 80 129 54 0
-22 -54 -129 -102 -202 l-41 -64 -47 51 c-25 27 -50 50 -56 50 -5 0 3 -10 18
-23 25 -20 68 -83 68 -99 0 -4 -34 -25 -75 -48 -41 -23 -75 -43 -75 -45 0 -3
34 11 76 30 42 19 79 35 81 35 3 0 2 -17 -1 -37 -5 -28 -4 -34 3 -23 6 8 11
23 11 32 0 29 15 28 99 -8 45 -20 84 -34 87 -32 2 3 -26 18 -63 33 -88 36 -98
44 -81 61 16 15 241 104 263 104 8 0 15 -2 15 -5 0 -12 -73 -151 -88 -168 -8
-9 -12 -20 -8 -24 11 -11 37 28 75 114 19 43 41 88 49 100 l14 23 40 -22 c63
-36 66 -44 27 -84 -19 -20 -53 -47 -76 -61 -55 -32 -56 -40 -2 -12 57 29 128
102 173 178 20 35 35 66 32 68 -2 3 -12 -10 -22 -29 -9 -18 -25 -45 -36 -60
l-19 -27 -47 30 c-26 16 -45 32 -44 36 2 3 -1 9 -7 12 -7 5 -4 26 10 65 11 32
18 60 16 63 -3 2 -13 -20 -22 -49 -28 -86 -36 -89 -92 -37 -74 67 -104 103
-101 118 2 8 27 31 57 52 50 35 91 69 81 69 -3 -1 -36 -23 -75 -50z m21 -196
c16 -17 39 -36 50 -42 19 -12 19 -12 0 -27 -11 -8 -40 -22 -65 -31 -25 -9 -84
-32 -131 -50 -46 -19 -90 -34 -96 -34 -7 0 14 46 47 102 32 57 64 118 70 138
6 19 13 41 15 49 3 9 17 -1 42 -30 20 -24 51 -58 68 -75z"/>
<path d="M3290 3522 c0 -4 10 -13 23 -21 22 -14 22 -14 3 8 -20 22 -26 25 -26
13z"/>
<path d="M1780 3395 l-115 -115 -163 0 c-163 0 -164 0 -184 25 -38 49 -118 20
-118 -43 0 -33 36 -72 66 -72 11 0 31 11 43 24 23 24 28 25 198 28 l174 3 47
50 c26 28 77 83 114 123 l67 72 71 0 c45 0 69 4 65 10 -3 6 -39 10 -78 10
l-72 0 -115 -115z m-486 -114 c29 -32 -5 -72 -45 -51 -21 12 -25 40 -7 58 17
17 32 15 52 -7z"/>
<path d="M3350 3471 c0 -11 -3 -21 -7 -23 -5 -2 -19 -16 -33 -31 -16 -18 -19
-26 -8 -22 8 3 30 24 47 45 24 30 27 39 16 44 -10 3 -15 -1 -15 -13z"/>
<path d="M3303 3378 c-12 -16 -24 -48 -18 -48 2 0 11 14 20 30 16 31 15 40 -2
18z"/>
<path d="M1612 3104 c-47 -33 -18 -114 41 -114 25 0 57 23 57 40 0 5 38 11 85
12 112 4 116 22 5 26 -55 2 -88 7 -95 16 -11 14 -49 36 -62 36 -5 0 -19 -7
-31 -16z m62 -33 c16 -17 16 -20 0 -35 -9 -9 -24 -16 -33 -14 -20 4 -27 48 -9
59 19 12 23 11 42 -10z"/>
<path d="M630 1922 l0 -274 158 4 c150 3 159 4 203 30 96 56 134 128 133 248
-1 106 -55 190 -151 236 -53 25 -67 27 -200 28 l-143 1 0 -273z m287 148 c72
-32 107 -115 84 -199 -22 -81 -65 -110 -177 -118 l-74 -6 0 172 0 171 63 0
c39 0 77 -7 104 -20z"/>
<path d="M1320 2088 c-23 -62 -70 -180 -103 -263 -32 -82 -62 -156 -64 -163
-4 -10 9 -12 57 -10 l63 3 17 50 17 50 113 0 114 0 17 -49 c10 -26 20 -50 22
-53 3 -2 32 -3 65 -1 l61 3 -106 273 -107 272 -61 0 -61 0 -44 -112z m143
-123 c14 -38 28 -78 32 -87 6 -16 0 -18 -69 -18 l-76 0 26 73 c43 118 44 121
53 111 4 -5 20 -40 34 -79z"/>
<path d="M2392 2184 c-48 -24 -82 -79 -82 -131 0 -90 37 -129 162 -174 103
-37 127 -57 110 -94 -18 -38 -56 -49 -122 -36 -30 6 -67 20 -81 30 l-27 20
-31 -44 -31 -44 42 -25 c111 -63 247 -62 321 3 25 21 47 76 47 118 0 83 -52
135 -175 172 -99 31 -129 66 -89 105 21 22 107 21 145 -1 28 -17 29 -17 59 12
16 16 30 34 30 39 0 6 -19 22 -43 35 -56 33 -185 41 -235 15z"/>
<path d="M1781 1920 l4 -270 58 0 57 0 0 96 0 95 47 -3 47 -3 49 -92 48 -93
66 0 65 0 -21 33 c-12 17 -38 63 -57 100 l-35 68 31 26 c44 37 60 74 60 141 0
49 -5 66 -29 99 -46 64 -77 73 -246 73 l-147 0 3 -270z m288 146 c16 -17 22
-33 19 -57 -5 -49 -53 -79 -129 -79 l-59 0 0 80 0 80 73 0 c65 0 76 -3 96 -24z"/>
<path d="M2810 1920 l0 -270 55 0 55 0 0 110 0 110 120 0 120 0 0 -110 0 -110
50 0 50 0 0 270 0 270 -50 0 -49 0 -3 -107 -3 -108 -115 0 -115 0 -3 108 -3
107 -54 0 -55 0 0 -270z"/>
<path d="M3502 1976 c4 -5 -5 -25 -20 -44 -15 -20 -21 -32 -14 -28 11 6 11 4
3 -10 -22 -40 -83 -176 -85 -189 -1 -8 -5 -18 -9 -21 -4 -4 -7 -13 -7 -21 0
-9 16 -13 55 -13 l55 0 11 45 c8 33 21 54 45 72 38 28 43 43 17 43 -14 0 -15
2 -4 9 11 7 10 11 -5 20 -17 11 -17 11 4 6 22 -6 22 -6 -3 21 l-26 28 26 13
c14 8 25 16 25 19 0 3 -5 2 -10 -1 -13 -8 -42 14 -35 25 3 4 -3 14 -13 21 -9
7 -14 10 -10 5z m27 -50 c9 -11 7 -13 -11 -11 -30 3 -30 3 -23 15 9 14 20 13
34 -4z"/>
<path d="M3560 1950 c-9 -6 -10 -10 -3 -10 6 0 15 5 18 10 8 12 4 12 -15 0z"/>
<path d="M3545 1890 c3 -5 8 -10 11 -10 2 0 4 5 4 10 0 6 -5 10 -11 10 -5 0
-7 -4 -4 -10z"/>
<path d="M3586 1829 c5 -19 4 -21 -5 -9 -7 9 -11 10 -11 3 0 -6 5 -15 10 -18
14 -9 25 24 12 37 -8 8 -9 4 -6 -13z"/>
<path d="M3602 1807 c-7 -8 -9 -17 -5 -21 4 -4 0 -4 -9 -1 -9 4 -19 2 -22 -3
-3 -5 16 -9 42 -9 26 -1 39 1 29 4 -9 2 -15 8 -13 12 3 4 1 13 -3 19 -6 10
-10 10 -19 -1z"/>
<path d="M3777 1703 c3 -7 6 -13 8 -13 2 0 5 6 8 13 3 8 -1 14 -8 14 -7 0 -11
-6 -8 -14z"/>
<path d="M3830 1686 c0 -2 8 -10 18 -17 15 -13 16 -12 3 4 -13 16 -21 21 -21
13z"/>
</g>
</svg>
